<svg xmlns="http://www.w3.org/2000/svg" width="19" height="19" viewBox="0 0 19 19" fill="none">
                    <mask id="mask0_2028_363" style="mask-type:alpha" maskUnits="userSpaceOnUse" x="0" y="0" width="19" height="19">
                      <rect width="19" height="19" fill="#D9D9D9"/>
                    </mask>
                    <g mask="url(#mask0_2028_363)">
                      <path d="M2.37484 16.6251C1.93942 16.6251 1.56668 16.47 1.25661 16.16C0.946539 15.8499 0.791504 15.4772 0.791504 15.0417V5.54175C0.791504 5.10633 0.946539 4.73359 1.25661 4.42352C1.56668 4.11345 1.93942 3.95842 2.37484 3.95842H4.86859L6.33317 2.37508H11.0832V3.95842H7.02588L5.58109 5.54175H2.37484V15.0417H15.0415V7.91675H16.6248V15.0417C16.6248 15.4772 16.4698 15.8499 16.1597 16.16C15.8497 16.47 15.4769 16.6251 15.0415 16.6251H2.37484ZM15.0415 5.54175V3.95842H13.4582V2.37508H15.0415V0.791748H16.6248V2.37508H18.2082V3.95842H16.6248V5.54175H15.0415ZM8.70817 13.8542C9.69775 13.8542 10.5389 13.5079 11.2316 12.8152C11.9243 12.1225 12.2707 11.2813 12.2707 10.2917C12.2707 9.30217 11.9243 8.46102 11.2316 7.76831C10.5389 7.0756 9.69775 6.72925 8.70817 6.72925C7.71859 6.72925 6.87744 7.0756 6.18473 7.76831C5.49202 8.46102 5.14567 9.30217 5.14567 10.2917C5.14567 11.2813 5.49202 12.1225 6.18473 12.8152C6.87744 13.5079 7.71859 13.8542 8.70817 13.8542ZM8.70817 12.2709C8.154 12.2709 7.6856 12.0796 7.30296 11.697C6.92032 11.3143 6.729 10.8459 6.729 10.2917C6.729 9.73758 6.92032 9.26918 7.30296 8.88654C7.6856 8.5039 8.154 8.31258 8.70817 8.31258C9.26234 8.31258 9.73074 8.5039 10.1134 8.88654C10.496 9.26918 10.6873 9.73758 10.6873 10.2917C10.6873 10.8459 10.496 11.3143 10.1134 11.697C9.73074 12.0796 9.26234 12.2709 8.70817 12.2709Z" fill="#1C1B1F"/>
                    </g>
                  </svg>