<svg xmlns="http://www.w3.org/2000/svg" width="50" height="50" viewBox="0 0 50 50" fill="none">
  <mask id="mask0_2201_331" style="mask-type:alpha" maskUnits="userSpaceOnUse" x="0" y="0" width="50" height="50">
    <rect width="50" height="50" fill="#D9D9D9"/>
  </mask>
  <g mask="url(#mask0_2201_331)">
    <path d="M6.16667 43.7502C5.02083 43.7502 4.03993 43.3422 3.22396 42.5262C2.40799 41.7102 2 40.7293 2 39.5835V14.5835C2 13.4377 2.40799 12.4568 3.22396 11.6408C4.03993 10.8248 5.02083 10.4168 6.16667 10.4168H12.7292L16.5833 6.25016H29.0833V10.4168H18.4063L14.6042 14.5835H6.16667V39.5835H39.5V20.8335H43.6667V39.5835C43.6667 40.7293 43.2587 41.7102 42.4427 42.5262C41.6267 43.3422 40.6458 43.7502 39.5 43.7502H6.16667ZM39.5 14.5835V10.4168H35.3333V6.25016H39.5V2.0835H43.6667V6.25016H47.8333V10.4168H43.6667V14.5835H39.5ZM22.8333 36.4585C25.4375 36.4585 27.651 35.547 29.474 33.7241C31.2969 31.9012 32.2083 29.6877 32.2083 27.0835C32.2083 24.4793 31.2969 22.2658 29.474 20.4429C27.651 18.62 25.4375 17.7085 22.8333 17.7085C20.2292 17.7085 18.0156 18.62 16.1927 20.4429C14.3698 22.2658 13.4583 24.4793 13.4583 27.0835C13.4583 29.6877 14.3698 31.9012 16.1927 33.7241C18.0156 35.547 20.2292 36.4585 22.8333 36.4585ZM22.8333 32.2918C21.375 32.2918 20.1424 31.7884 19.1354 30.7814C18.1285 29.7745 17.625 28.5418 17.625 27.0835C17.625 25.6252 18.1285 24.3925 19.1354 23.3856C20.1424 22.3786 21.375 21.8752 22.8333 21.8752C24.2917 21.8752 25.5243 22.3786 26.5313 23.3856C27.5382 24.3925 28.0417 25.6252 28.0417 27.0835C28.0417 28.5418 27.5382 29.7745 26.5313 30.7814C25.5243 31.7884 24.2917 32.2918 22.8333 32.2918Z" fill="white"/>
  </g>
</svg>