<svg xmlns="http://www.w3.org/2000/svg" width="101" height="102" viewBox="0 0 101 102" fill="none">
  <mask id="mask0_2125_721" style="mask-type:alpha" maskUnits="userSpaceOnUse" x="0" y="0" width="101" height="102">
    <rect y="1.51001" width="100" height="100" transform="rotate(-0.365311 0 1.51001)" fill="#D9D9D9"/>
  </mask>
  <g mask="url(#mask0_2125_721)">
    <path d="M85.0402 94.7196L54.2206 64.2904C51.8025 66.2503 49.0172 67.8075 45.8648 68.9619C42.7124 70.1163 39.3538 70.7048 35.789 70.7275C26.9582 70.7838 19.4649 67.7731 13.3091 61.6953C7.15335 55.6176 4.04731 48.1633 3.99101 39.3324C3.9347 30.5016 6.94544 23.0083 13.0232 16.8525C19.101 10.6967 26.5553 7.59069 35.3861 7.53438C44.217 7.47808 51.7103 10.4888 57.866 16.5666C64.0218 22.6444 67.1279 30.0987 67.1842 38.9295C67.2069 42.4942 66.6612 45.8601 65.5471 49.027C64.433 52.1938 62.9115 54.9987 60.9826 57.4416L91.8023 87.8708L85.0402 94.7196ZM35.7271 61.0055C41.8033 60.9668 46.9546 58.8072 51.1809 54.5266C55.4071 50.2461 57.5009 45.0678 57.4621 38.9915C57.4234 32.9152 55.2638 27.764 50.9833 23.5377C46.7028 19.3114 41.5244 17.2177 35.4481 17.2564C29.3719 17.2951 24.2206 19.4548 19.9943 23.7353C15.7681 28.0158 13.6743 33.1942 13.713 39.2704C13.7518 45.3467 15.9114 50.498 20.1919 54.7242C24.4724 58.9505 29.6508 61.0443 35.7271 61.0055Z" fill="white"/>
    <path d="M35.1388 26.2865L25.3024 48.8496L32.354 48.8047L34.587 42.8371L31.2404 42.8585L36.6007 30.6124L37.0782 39.8904L40.5442 39.8683L37.9715 48.7689L47.8019 48.7062L37.5292 26.2712L35.1388 26.2865Z" fill="#FFE666"/>
  </g>
</svg>