<svg width="35" height="39" viewBox="0 0 35 39" fill="none" xmlns="http://www.w3.org/2000/svg">
<path d="M15.4356 33.7272V20.4686L3.8589 13.7425V27.0011L15.4356 33.7272ZM19.2945 33.7272L30.8712 27.0011V13.7425L19.2945 20.4686V33.7272ZM17.365 17.1297L28.797 10.5004L17.365 3.87112L5.93306 10.5004L17.365 17.1297ZM1.92945 30.3883C1.31846 30.0335 0.844134 29.5657 0.50648 28.985C0.168827 28.4044 0 27.7592 0 27.0495V11.6618C0 10.9521 0.168827 10.3069 0.50648 9.7262C0.844134 9.14553 1.31846 8.67777 1.92945 8.32292L15.4356 0.53228C16.0466 0.177427 16.6897 0 17.365 0C18.0404 0 18.6835 0.177427 19.2945 0.53228L32.8006 8.32292C33.4116 8.67777 33.886 9.14553 34.2236 9.7262C34.5613 10.3069 34.7301 10.9521 34.7301 11.6618V27.0495C34.7301 27.7592 34.5613 28.4044 34.2236 28.985C33.886 29.5657 33.4116 30.0335 32.8006 30.3883L19.2945 38.179C18.6835 38.5338 18.0404 38.7112 17.365 38.7112C16.6897 38.7112 16.0466 38.5338 15.4356 38.179L1.92945 30.3883Z" fill="white"/>
</svg>
