<svg width="25" height="25" viewBox="0 0 25 25" fill="none" xmlns="http://www.w3.org/2000/svg">
<rect width="25" height="25" rx="12.5" fill="white"/>
<mask id="mask0_2028_400" style="mask-type:alpha" maskUnits="userSpaceOnUse" x="3" y="3" width="19" height="19">
<rect x="3.3335" y="3.2583" width="18.2926" height="17.8831" fill="#D9D9D9"/>
</mask>
<g mask="url(#mask0_2028_400)">
<path d="M7.1445 17.416H8.21158L14.7855 10.9892L13.7184 9.94605L7.1445 16.3728V17.416ZM18.0439 9.90879L14.8045 6.77925L15.8716 5.73607C16.1638 5.45043 16.5227 5.30762 16.9482 5.30762C17.3738 5.30762 17.7326 5.45043 18.0248 5.73607L19.0919 6.77925C19.3841 7.06488 19.5365 7.4095 19.5492 7.81311C19.5619 8.21673 19.4222 8.56135 19.13 8.84698L18.0439 9.90879ZM16.9387 11.0079L8.85944 18.9062H5.62012V15.7394L13.6994 7.84106L16.9387 11.0079Z" fill="#1C1B1F"/>
</g>
</svg>
