<svg width="26" height="32" viewBox="0 0 26 32" fill="none" xmlns="http://www.w3.org/2000/svg">
<path d="M12.7219 15.7219C13.58 15.7219 14.3146 15.4163 14.9256 14.8053C15.5367 14.1942 15.8422 13.4596 15.8422 12.6016C15.8422 11.7435 15.5367 11.0089 14.9256 10.3979C14.3146 9.78679 13.58 9.48126 12.7219 9.48126C11.8638 9.48126 11.1293 9.78679 10.5182 10.3979C9.90715 11.0089 9.60162 11.7435 9.60162 12.6016C9.60162 13.4596 9.90715 14.1942 10.5182 14.8053C11.1293 15.4163 11.8638 15.7219 12.7219 15.7219ZM12.7219 27.189C15.8942 24.2767 18.2475 21.6309 19.7816 19.2517C21.3158 16.8725 22.0828 14.7598 22.0828 12.9136C22.0828 10.0793 21.1792 7.7586 19.3721 5.95142C17.5649 4.14425 15.3482 3.24066 12.7219 3.24066C10.0957 3.24066 7.87896 4.14425 6.07178 5.95142C4.26461 7.7586 3.36102 10.0793 3.36102 12.9136C3.36102 14.7598 4.1281 16.8725 5.66224 19.2517C7.19639 21.6309 9.54962 24.2767 12.7219 27.189ZM12.7219 31.3234C8.53552 27.761 5.40872 24.4522 3.34152 21.3969C1.27432 18.3416 0.240723 15.5138 0.240723 12.9136C0.240723 9.01322 1.49534 5.90592 4.00459 3.5917C6.51383 1.27747 9.41961 0.120361 12.7219 0.120361C16.0242 0.120361 18.93 1.27747 21.4393 3.5917C23.9485 5.90592 25.2031 9.01322 25.2031 12.9136C25.2031 15.5138 24.1695 18.3416 22.1023 21.3969C20.0351 24.4522 16.9083 27.761 12.7219 31.3234Z" fill="#112037"/>
</svg>
