<svg width="29" height="29" viewBox="0 0 29 29" fill="none" xmlns="http://www.w3.org/2000/svg">
<path d="M19.125 28.375L9.875 25.1375L2.70625 27.9125C2.19236 28.1181 1.71701 28.0602 1.28021 27.7391C0.843403 27.4179 0.625 26.9875 0.625 26.4479V4.86458C0.625 4.53056 0.721354 4.23507 0.914062 3.97812C1.10677 3.72118 1.37014 3.52847 1.70417 3.4L9.875 0.625L19.125 3.8625L26.2937 1.0875C26.8076 0.881944 27.283 0.939757 27.7198 1.26094C28.1566 1.58212 28.375 2.0125 28.375 2.55208V24.1354C28.375 24.4694 28.2786 24.7649 28.0859 25.0219C27.8932 25.2788 27.6299 25.4715 27.2958 25.6L19.125 28.375ZM17.5833 24.5979V6.56042L11.4167 4.40208V22.4396L17.5833 24.5979ZM20.6667 24.5979L25.2917 23.0562V4.7875L20.6667 6.56042V24.5979ZM3.70833 24.2125L8.33333 22.4396V4.40208L3.70833 5.94375V24.2125Z" fill="#112037"/>
</svg>
