<svg width="246" height="76" viewBox="0 0 246 76" fill="none" xmlns="http://www.w3.org/2000/svg">
<path d="M112.299 18.3091L93.084 60.7424H106.661L111.033 49.5151H104.59L115.061 26.4848L115.866 43.9879H122.54L117.477 60.7424H136.404L116.902 18.3091H112.299Z" fill="#FDD91D"/>
<path d="M17.4358 61.408C14.3577 61.4485 11.6846 60.9621 9.41651 59.9488C7.14843 58.9355 4.98161 57.4155 2.91604 55.3888C2.71353 55.2267 2.53127 55.024 2.36927 54.7808C2.24776 54.5376 2.18701 54.2539 2.18701 53.9296C2.18701 53.4432 2.36927 52.9973 2.73378 52.592C3.13879 52.1867 3.58431 51.984 4.07033 51.984C4.55634 51.984 5.00186 52.1867 5.40687 52.592C6.98643 54.2944 8.76849 55.5915 10.7531 56.4832C12.7781 57.3749 14.945 57.8208 17.2535 57.8208C19.1976 57.8208 20.9189 57.5168 22.4175 56.9088C23.9565 56.3008 25.1716 55.4293 26.0626 54.2944C26.9536 53.1595 27.3991 51.8421 27.3991 50.3424C27.3991 48.4779 26.8929 46.9781 25.8803 45.8432C24.8678 44.6677 23.5313 43.7152 21.8707 42.9856C20.2101 42.2155 18.3673 41.5264 16.3423 40.9184C14.6817 40.432 13.1021 39.8848 11.6036 39.2768C10.105 38.6283 8.76849 37.8581 7.59395 36.9664C6.41941 36.0341 5.50813 34.8992 4.8601 33.5616C4.21208 32.224 3.88807 30.6027 3.88807 28.6976C3.88807 26.5493 4.45509 24.6443 5.58913 22.9824C6.72317 21.3205 8.32297 20.0235 10.3885 19.0912C12.4946 18.1184 14.9247 17.632 17.6788 17.632C20.0684 17.632 22.3567 18.0373 24.5438 18.848C26.7714 19.6587 28.5332 20.8544 29.8292 22.4352C30.4367 23.0837 30.7405 23.6715 30.7405 24.1984C30.7405 24.6037 30.538 25.0091 30.133 25.4144C29.728 25.8197 29.2825 26.0224 28.7964 26.0224C28.3914 26.0224 28.0472 25.8805 27.7636 25.5968C27.0751 24.7456 26.2043 23.9957 25.1513 23.3472C24.0983 22.6581 22.9237 22.1312 21.6277 21.7664C20.3721 21.4016 19.0558 21.2192 17.6788 21.2192C15.7752 21.2192 14.0539 21.5232 12.5149 22.1312C11.0163 22.6987 9.82153 23.5296 8.9305 24.624C8.07997 25.7184 7.6547 27.0357 7.6547 28.576C7.6547 30.2784 8.14072 31.6768 9.11275 32.7712C10.0848 33.8656 11.3606 34.7776 12.9401 35.5072C14.5197 36.1963 16.2005 36.8448 17.9826 37.4528C19.7241 37.9392 21.3847 38.5067 22.9642 39.1552C24.5843 39.7632 26.0018 40.5333 27.2169 41.4656C28.4724 42.3979 29.4445 43.5733 30.133 44.992C30.862 46.4107 31.2265 48.1941 31.2265 50.3424C31.2265 52.4096 30.6392 54.2741 29.4647 55.936C28.2902 57.5979 26.6701 58.9152 24.6045 59.888C22.5795 60.8608 20.1899 61.3675 17.4358 61.408ZM68.1956 18.24C70.4636 18.24 72.4685 18.7669 74.21 19.8208C75.9516 20.8341 77.3286 22.2528 78.3412 24.0768C79.3537 25.9008 79.86 27.9883 79.86 30.3392C79.86 32.6901 79.3537 34.8181 78.3412 36.7232C77.3286 38.5877 75.9516 40.0672 74.21 41.1616C72.4685 42.256 70.4636 42.8032 68.1956 42.8032H55.3161L55.6199 42.1952V58.976C55.6199 59.4624 55.4376 59.888 55.0731 60.2528C54.7086 60.6176 54.2833 60.8 53.7973 60.8C53.2303 60.8 52.7848 60.6176 52.4608 60.2528C52.1367 59.888 51.9747 59.4624 51.9747 58.976V20.064C51.9747 19.5776 52.157 19.152 52.5215 18.7872C52.886 18.4224 53.3113 18.24 53.7973 18.24H68.1956ZM68.1956 39.2768C69.7751 39.2768 71.1522 38.8917 72.3267 38.1216C73.5012 37.3109 74.4125 36.2368 75.0605 34.8992C75.7491 33.5211 76.0933 32.0011 76.0933 30.3392C76.0933 28.6773 75.7491 27.2181 75.0605 25.9616C74.4125 24.6645 73.5012 23.6512 72.3267 22.9216C71.1522 22.192 69.7751 21.8272 68.1956 21.8272H55.3161L55.6199 21.28V39.6416L55.2554 39.2768H68.1956ZM159.906 60.8C159.298 60.8 158.792 60.6176 158.387 60.2528C158.022 59.888 157.84 59.4624 157.84 58.976V20.064C157.84 19.5776 158.022 19.152 158.387 18.7872C158.752 18.4224 159.176 18.24 159.663 18.24H176.066C178.374 18.24 180.439 18.7467 182.262 19.76C184.085 20.7328 185.502 22.0907 186.515 23.8336C187.569 25.5765 188.094 27.5424 188.094 29.7312C188.094 31.5147 187.771 33.1563 187.122 34.656C186.474 36.1557 185.563 37.4325 184.388 38.4864C183.215 39.4997 181.898 40.2496 180.439 40.736L178.313 40.0672C179.812 40.1888 181.209 40.6752 182.506 41.5264C183.802 42.3371 184.835 43.472 185.603 44.9312C186.413 46.3499 186.839 48.0725 186.879 50.0992C186.92 51.8421 187.001 53.2 187.122 54.1728C187.284 55.1456 187.508 55.8752 187.791 56.3616C188.075 56.848 188.438 57.2331 188.885 57.5168C189.29 57.76 189.552 58.1045 189.674 58.5504C189.836 58.9963 189.796 59.4219 189.552 59.8272C189.391 60.1515 189.147 60.3947 188.824 60.5568C188.54 60.6784 188.236 60.7392 187.913 60.7392C187.588 60.7392 187.265 60.6581 186.94 60.496C186.373 60.1717 185.786 59.6651 185.179 58.976C184.612 58.2869 184.126 57.2736 183.721 55.936C183.356 54.5984 183.173 52.7339 183.173 50.3424C183.173 48.7616 182.911 47.4645 182.384 46.4512C181.898 45.4379 181.249 44.6677 180.439 44.1408C179.671 43.5733 178.8 43.1883 177.828 42.9856C176.896 42.7424 176.005 42.6208 175.155 42.6208H160.999L161.667 41.7696V58.976C161.667 59.4624 161.505 59.888 161.182 60.2528C160.857 60.6176 160.433 60.8 159.906 60.8ZM160.999 39.2768H176.248C177.625 39.1552 178.921 38.7093 180.136 37.9392C181.351 37.1285 182.323 36.0341 183.052 34.656C183.822 33.2779 184.207 31.6768 184.207 29.8528C184.207 27.5424 183.417 25.6373 181.837 24.1376C180.298 22.5973 178.273 21.8272 175.762 21.8272H161.243L161.667 20.976V40.128L160.999 39.2768ZM241.066 61.0432C240.539 61.0432 240.094 60.8203 239.729 60.3744L222.476 38.6688L225.33 35.8112L242.706 57.8208C242.99 58.2261 243.131 58.6517 243.131 59.0976C243.131 59.7461 242.889 60.2325 242.402 60.5568C241.957 60.8811 241.511 61.0432 241.066 61.0432ZM240.398 18.3616C240.883 18.3616 241.288 18.544 241.613 18.9088C241.977 19.2736 242.159 19.6789 242.159 20.1248C242.159 20.6112 241.977 21.0368 241.613 21.4016L214.031 47.2416L213.545 43.1072L239.061 18.9696C239.466 18.5643 239.911 18.3616 240.398 18.3616ZM212.572 60.8C212.006 60.8 211.54 60.6176 211.176 60.2528C210.851 59.888 210.69 59.4421 210.69 58.9152V20.1248C210.69 19.5979 210.872 19.152 211.237 18.7872C211.601 18.4224 212.066 18.24 212.633 18.24C213.16 18.24 213.606 18.4224 213.97 18.7872C214.335 19.152 214.517 19.5979 214.517 20.1248V58.9152C214.477 59.4421 214.274 59.888 213.909 60.2528C213.545 60.6176 213.099 60.8 212.572 60.8Z" fill="white"/>
</svg>
